# xmcd
#
# Track frame offsets:
#	150
#	18857
#	43575
#
# Disc length: 827 seconds
#
# Revision: 1
# Processed by: cddbd v1.5.1PL0 Copyright (c) Steve Scherf et al.
# Submitted via: CDex 1.50Beta5
#
DISCID=18033903
DTITLE=Megumi - 見上げてごらん夜の星を
DYEAR=1900
DGENRE=Pop
TTITLE0=見上げてごらん夜の星を(Radio Edit)
TTITLE1=Eternal Scene
TTITLE2=見上げてごらん夜の星を(Instrumental)
EXTD=
EXTT0=
EXTT1=
EXTT2=
PLAYORDER=
